<svg width="32" height="34" viewBox="0 0 32 34" fill="none" xmlns="http://www.w3.org/2000/svg">
<path fill-rule="evenodd" clip-rule="evenodd" d="M16 29.75C22.6274 29.75 28 24.0416 28 17C28 9.95837 22.6274 4.25 16 4.25C9.37258 4.25 4 9.95837 4 17C4 24.0416 9.37258 29.75 16 29.75ZM22.1202 13.3671C22.461 12.9326 22.385 12.304 21.9505 11.9631C21.5159 11.6223 20.8873 11.6983 20.5465 12.1329L15.3155 18.8023C14.9631 19.2517 14.7627 19.5033 14.6015 19.6582L14.5953 19.6641L14.5885 19.6588C14.414 19.519 14.1919 19.2865 13.8005 18.8706L11.3949 16.3146C11.0164 15.9125 10.3835 15.8933 9.9813 16.2718C9.57913 16.6503 9.55995 17.2832 9.93847 17.6854L12.3441 20.2413L12.3851 20.2849L12.3852 20.285C12.72 20.6409 13.0398 20.9808 13.3383 21.2199C13.6711 21.4863 14.1134 21.7414 14.6876 21.7156C15.2619 21.6897 15.6795 21.3959 15.9869 21.1006C16.2627 20.8357 16.5507 20.4684 16.8522 20.0838L16.8522 20.0838L16.8892 20.0366L22.1202 13.3671ZM14.5032 19.7407L14.505 19.7397C14.5038 19.7404 14.5032 19.7407 14.5032 19.7407ZM14.6919 19.7312L14.6938 19.7321C14.6938 19.7321 14.6932 19.7319 14.6919 19.7312Z" fill="#FFB800"/>
</svg>
