<svg xmlns="http://www.w3.org/2000/svg" viewBox="0 0 704.84 192.41"><defs><style>.cls-1{fill:#e2b43a;}.cls-2{fill:#fff;}</style></defs><g id="Layer_2" data-name="Layer 2"><g id="Layer_1-2" data-name="Layer 1"><path class="cls-1" d="M613.11,0c2.47.26,5,.47,7.42.78a89.07,89.07,0,0,1,32.69,10.49c.07,0,.11.11.36.38h-1.41a62,62,0,0,0-13.8.91c-13.45,2.94-21.87,11.15-25.49,24.35A54.46,54.46,0,0,0,611,51.34c0,.36,0,.72.06,1.2,4.4-.61,8.7-.93,12.76,1.85l-4.44,2.44a40.84,40.84,0,0,1,5.08,2.63,38.51,38.51,0,0,1,4,3.74l-.27.34c-1.62-.42-3.22-.87-4.85-1.24-.85-.19-2-.75-2.44.31-.21.47.53,1.42,1,2.07a24.44,24.44,0,0,0,1.81,2.14l-6.06-1.5-.19.28c.49.57,1,1.18,1.49,1.71,3.41,3.3,6.85,6.57,10.26,9.86a21.58,21.58,0,0,1,6.3,12.46A29.64,29.64,0,0,0,642,103.75c5.16,6.32,10.19,12.74,15.3,19.1q2.58,3.21,5.28,6.32a14.48,14.48,0,0,1,3.72,10.54,14,14,0,0,0,.33,3.34A9.39,9.39,0,0,1,665,150.5a34.87,34.87,0,0,1-3.25,3.94c-1.06,1.16-1.73,1.06-3,.16-3.12-2.2-6.23-4.42-9.48-6.42a31.7,31.7,0,0,0-5.07-2,12.66,12.66,0,0,0,.7,6.45c.67,2,1.5,3.86,2.27,5.78-4.62,1.51-11.33-1-13.29-5.37-.85-1.92-.72-4.29-1-6.46a11.55,11.55,0,0,0-.17-2,3.14,3.14,0,0,0-1-1.58,14.76,14.76,0,0,0-12.11-2.33c-2.38.58-4.79-.06-7.11-.78-.59-.19-1.18-.33-2-.56,0,1.26,0,2.36,0,3.46.34,7,1.6,13.69,4.81,20,4.87,9.53,12.84,14.87,23.16,17a53.25,53.25,0,0,0,13.15,1c.54,0,1.09,0,1.63,0,.1,0,.2.09.53.24a94.87,94.87,0,0,1-89.8.1l0-.33c.29,0,.58-.06.87-.06,5.89.11,11.76,0,17.43-1.8,11.4-3.61,19-11.06,22.22-22.63,3.67-13.14,3.39-26.12-2-38.81a66.94,66.94,0,0,0-14.83-21.1c-9-9-18.16-17.74-27.22-26.63-4.2-4.11-7.21-9.12-10.3-14.06a3.41,3.41,0,0,1-.37-2c.52-5.74,2.63-10.7,7.25-14.38.44-.35.93-.65,1.63-1.13-.72,7.51.79,14.22,5.15,20.21-.29-1.62-.56-3.23-.86-4.84a38.84,38.84,0,0,1,.1-15.23c.53-2.5,1.45-3.25,4-3.36,5.28-.22,10.39.36,15.08,3.05a20,20,0,0,1,5.93,5.09,1.62,1.62,0,0,1-.07,2.41c-1.49,1.63-3,3.23-4.39,4.94a8.15,8.15,0,0,0-1.9,7,4.36,4.36,0,0,0,.38.82c1.83-4.35,5.12-7.33,8.2-10.47s5-6.43,4.92-10.84l.36-.19A21.49,21.49,0,0,1,598.09,39a19,19,0,0,1,4,10.19c.27,2.1.28,4.22.42,6.49,1.15-.55,2.33-1,3.42-1.69a1.69,1.69,0,0,0,.61-1.27c0-7.27-.77-14.43-3.74-21.2-4.74-10.76-13.09-16.89-24.5-19.1a54.2,54.2,0,0,0-14.16-.81h-.87c.57-.38.87-.6,1.19-.77A86.05,86.05,0,0,1,594.72,1c2.6-.35,5.22-.52,7.82-.79.36,0,.72-.15,1.07-.22Zm17,98.11c-1.43-9.23-8.17-13.46-15.17-18,.8,3.27,1.34,6.26,2.31,9.1A5.71,5.71,0,0,0,619.94,92C623.33,93.85,627,95.17,630.15,98.11Z"/><path d="M297.51,151.46H286.15c-1.32-26.08-3.41-52.11-3.85-78.27C274.32,99.53,264,125,254.92,151h-9c-8.34-25.91-18.24-51.3-24.91-77.65q-2.15,39-4.3,78.08H205.53q3.14-45,6.27-89.9c.34,0,.66-.09,1-.09h12.87c.63,0,1.05.06,1.3.79,6.67,19.43,13.42,38.85,20,58.31,1.49,4.4,2.53,9,3.78,13.43.12.46.27.91.48,1.62a5.94,5.94,0,0,0,.47-.85c3.67-14.39,8.76-28.31,13.91-42.22q5.49-14.84,10.91-29.7a1.77,1.77,0,0,1,2-1.41c4.41.09,8.82,0,13.36,0C293.76,91.46,295.63,121.39,297.51,151.46Z"/><path d="M663.34,58.15h24.44c-.25-5.79-.49-11.54-.73-17.37A91.86,91.86,0,0,1,704.8,93.41c.59,21.29-5.21,40.68-17.88,57.93.24-2.47.52-4.93.73-7.4,1.28-15.75-3.06-29.75-13.68-41.48-5.75-6.33-12.09-12.13-18.22-18.11-4.53-4.41-9.14-8.75-12.75-14a32.34,32.34,0,0,1-6-19.16,34.81,34.81,0,0,1,1.09-7.73c1.22-4.81,4.37-7.72,9.42-8a27.52,27.52,0,0,1,7.42.46c4.46,1,6.81,4.25,7.37,8.58S663,53.49,663.34,58.15Z"/><path d="M553.7,129.33H529q.28,11.05.56,21.81A92,92,0,0,1,514,115a98.92,98.92,0,0,1,.44-39.86c2.52-11.65,12.11-32.46,16.72-35.95-.28,2.24-.56,4.41-.82,6.59-2,17.58,2.58,33,15,45.84,6.7,6.89,13.74,13.44,20.57,20.2,5.48,5.4,10.53,11.13,13.12,18.57a30.51,30.51,0,0,1,.61,18.4,10.33,10.33,0,0,1-10.47,8,35.71,35.71,0,0,1-6.94-.53,9.79,9.79,0,0,1-7.78-8.7c-.37-3.72-.54-7.45-.7-11.19C553.62,134.06,553.7,131.77,553.7,129.33Z"/><path d="M347.84,61.46a81.72,81.72,0,0,0,8.72-.07c3-.33,4.52.87,6.05,3.34,9.92,16,20.16,31.73,30,47.74,4.46,7.29,8.22,15,12.29,22.54a4.27,4.27,0,0,0,.71,1.08c-1.94-24.8-.82-49.63-1.19-74.63h10.88v90c-3.76,0-7.5,0-11.23,0-.37,0-.82-.6-1.09-1-6.08-9.68-12.21-19.34-18.2-29.07q-10.39-16.89-20.56-33.91c-2-3.34-3.62-6.92-5.41-10.39a4.08,4.08,0,0,0-.85-1.25c1.27,25.17.51,50.33.75,75.59H347.84Z"/><path d="M195.18,151.49H182.8c-.92-2.7-1.85-5.4-2.77-8.11-2.15-6.33-4.32-12.65-6.43-19a1.55,1.55,0,0,0-1.76-1.26q-14.61.06-29.23,0a1.62,1.62,0,0,0-1.86,1.31c-2.8,8.65-5.68,17.27-8.5,25.92a1.43,1.43,0,0,1-1.65,1.19c-3.53-.06-7.07,0-10.77,0,1-2.84,1.86-5.59,2.79-8.32l17.9-52.59q4.78-14.1,9.56-28.2a1.22,1.22,0,0,1,1.42-1c4,0,8,0,12,0a1.15,1.15,0,0,1,1.32.93q10.19,30,20.43,59.89,4.74,13.92,9.5,27.82C194.88,150.51,195,150.94,195.18,151.49Zm-51.52-37.44h27c-4.5-14.16-10.06-27.87-13.59-42.29C153.63,86.19,148.18,99.94,143.66,114.05Z"/><path d="M504.05,151.47H491.68L487.44,139c-1.65-4.83-3.32-9.66-4.92-14.51a1.61,1.61,0,0,0-1.81-1.36q-14.68.07-29.36,0a1.48,1.48,0,0,0-1.67,1.22c-2.82,8.64-5.7,17.27-8.5,25.92a1.57,1.57,0,0,1-1.84,1.28c-3.49-.06-7,0-10.62,0,1-2.86,1.87-5.61,2.8-8.35L452.7,80.91c2.1-6.17,4.21-12.34,6.28-18.52a1.15,1.15,0,0,1,1.31-1q6.06.06,12.12,0a1.15,1.15,0,0,1,1.3,1q10.67,31.37,21.4,62.72l8.56,25.11C503.81,150.61,503.91,151,504.05,151.47ZM479.6,114.09c-4.52-14.21-10.06-27.91-13.6-42.31-3.47,14.43-8.94,28.17-13.45,42.31Z"/><path d="M2.65,137.34a40.64,40.64,0,0,0,12.17,4.85c5.77,1.25,11.56,1.62,17.25-.34s9.33-5.76,10.16-11.8-1.07-10.9-6-14.55a44,44,0,0,0-11.18-5.7,56.21,56.21,0,0,1-14.56-7.57C-2.91,92.12-.9,71.51,14.3,63.69c6.31-3.25,13-4.09,20-3.64a40.76,40.76,0,0,1,15,3.58c1.13.54,1.44,1,1,2.25-1,2.55-1.82,5.16-2.7,7.72-2.32-.88-4.52-1.87-6.81-2.54-5.93-1.74-12-2.36-17.94-.36C12.37,74.19,11.32,84.92,15.7,91a16.87,16.87,0,0,0,6.3,5.2c3.46,1.71,7,3.25,10.56,4.76a55.42,55.42,0,0,1,12.55,6.86,22.33,22.33,0,0,1,9.11,17c.44,7.22-1.43,13.69-6.48,19a27.35,27.35,0,0,1-14.39,7.78,49.35,49.35,0,0,1-31-3.08c-2.73-1.19-2.7-1.26-1.85-4.06C1.22,142.11,1.92,139.76,2.65,137.34Z"/><path d="M99,151.46H87.34V71.32H85.76c-8.16,0-16.32,0-24.48,0-1.08,0-1.45-.24-1.42-1.37.09-2.78,0-5.56,0-8.43h66.59v9.78H99Z"/><path d="M327.11,151.45H315.76V61.54h11.35Z"/><path class="cls-2" d="M630.15,98.11c-3.16-2.94-6.82-4.26-10.21-6.08a5.71,5.71,0,0,1-2.65-2.78c-1-2.84-1.51-5.83-2.31-9.1C622,84.65,628.72,88.88,630.15,98.11Z"/><path class="cls-1" d="M143.66,114.05c4.52-14.11,10-27.86,13.45-42.29,3.53,14.42,9.09,28.13,13.59,42.29Z"/><path class="cls-1" d="M479.6,114.09H452.55c4.51-14.14,10-27.88,13.45-42.31C469.54,86.18,475.08,99.88,479.6,114.09Z"/></g></g></svg>